<mxfile host="Electron" agent="Mozilla/5.0 (Windows NT 10.0; Win64; x64) AppleWebKit/537.36 (KHTML, like Gecko) draw.io/26.0.16 Chrome/132.0.6834.196 Electron/34.2.0 Safari/537.36" version="26.0.16">
  <diagram name="Page-1" id="cv4f6Z8Gkdm5JkzRL9vx">
    <mxGraphModel dx="858" dy="2591" grid="1" gridSize="10" guides="1" tooltips="1" connect="1" arrows="1" fold="1" page="1" pageScale="1" pageWidth="850" pageHeight="1100" math="0" shadow="0">
      <root>
        <mxCell id="0" />
        <mxCell id="1" parent="0" />
        <mxCell id="ZZBJnIAPLXDWuuKdGNFh-1" value="" style="rounded=0;whiteSpace=wrap;html=1;" parent="1" vertex="1">
          <mxGeometry x="40" y="-1042" width="160" height="200" as="geometry" />
        </mxCell>
        <mxCell id="ZZBJnIAPLXDWuuKdGNFh-2" value="DRIVE_INPUTS" style="text;html=1;align=left;verticalAlign=bottom;whiteSpace=wrap;rounded=0;fontFamily=Lucida Console;" parent="1" vertex="1">
          <mxGeometry x="40" y="-1060" width="160" height="20" as="geometry" />
        </mxCell>
        <mxCell id="ZZBJnIAPLXDWuuKdGNFh-3" value="" style="rounded=0;whiteSpace=wrap;html=1;" parent="1" vertex="1">
          <mxGeometry x="40" y="-762" width="160" height="122" as="geometry" />
        </mxCell>
        <mxCell id="ZZBJnIAPLXDWuuKdGNFh-4" value="DRIVE_CLOCK" style="text;html=1;align=left;verticalAlign=bottom;whiteSpace=wrap;rounded=0;fontFamily=Lucida Console;" parent="1" vertex="1">
          <mxGeometry x="40" y="-780" width="160" height="20" as="geometry" />
        </mxCell>
        <mxCell id="ZZBJnIAPLXDWuuKdGNFh-5" value="" style="rounded=0;whiteSpace=wrap;html=1;" parent="1" vertex="1">
          <mxGeometry x="40" y="-602" width="160" height="122" as="geometry" />
        </mxCell>
        <mxCell id="ZZBJnIAPLXDWuuKdGNFh-6" value="DRIVE_RESET" style="text;html=1;align=left;verticalAlign=bottom;whiteSpace=wrap;rounded=0;fontFamily=Lucida Console;" parent="1" vertex="1">
          <mxGeometry x="40" y="-620" width="160" height="20" as="geometry" />
        </mxCell>
        <mxCell id="ZZBJnIAPLXDWuuKdGNFh-8" value="clock" style="text;html=1;align=left;verticalAlign=bottom;whiteSpace=wrap;rounded=0;fontFamily=Lucida Console;spacingRight=0;spacingLeft=12;" parent="1" vertex="1">
          <mxGeometry x="200" y="-720" width="120" height="20" as="geometry" />
        </mxCell>
        <mxCell id="ZZBJnIAPLXDWuuKdGNFh-9" value="" style="endArrow=none;html=1;rounded=0;" parent="1" edge="1">
          <mxGeometry width="50" height="50" relative="1" as="geometry">
            <mxPoint x="200" y="-700" as="sourcePoint" />
            <mxPoint x="320" y="-700" as="targetPoint" />
          </mxGeometry>
        </mxCell>
        <mxCell id="ZZBJnIAPLXDWuuKdGNFh-10" value="reset" style="text;html=1;align=left;verticalAlign=bottom;whiteSpace=wrap;rounded=0;fontFamily=Lucida Console;spacingRight=0;spacingLeft=12;" parent="1" vertex="1">
          <mxGeometry x="200" y="-560" width="120" height="20" as="geometry" />
        </mxCell>
        <mxCell id="ZZBJnIAPLXDWuuKdGNFh-11" value="" style="endArrow=none;html=1;rounded=0;" parent="1" edge="1">
          <mxGeometry width="50" height="50" relative="1" as="geometry">
            <mxPoint x="200" y="-540" as="sourcePoint" />
            <mxPoint x="320" y="-540" as="targetPoint" />
          </mxGeometry>
        </mxCell>
        <mxCell id="ZZBJnIAPLXDWuuKdGNFh-12" value="nextEn" style="text;html=1;align=left;verticalAlign=bottom;whiteSpace=wrap;rounded=0;fontFamily=Lucida Console;spacingRight=0;spacingLeft=12;" parent="1" vertex="1">
          <mxGeometry x="200" y="-980" width="120" height="20" as="geometry" />
        </mxCell>
        <mxCell id="ZZBJnIAPLXDWuuKdGNFh-13" value="" style="endArrow=none;html=1;rounded=0;" parent="1" edge="1">
          <mxGeometry width="50" height="50" relative="1" as="geometry">
            <mxPoint x="200" y="-960" as="sourcePoint" />
            <mxPoint x="320" y="-960" as="targetPoint" />
          </mxGeometry>
        </mxCell>
        <mxCell id="ZZBJnIAPLXDWuuKdGNFh-14" value="" style="rounded=0;whiteSpace=wrap;html=1;" parent="1" vertex="1">
          <mxGeometry x="320" y="-1041" width="160" height="200" as="geometry" />
        </mxCell>
        <mxCell id="ZZBJnIAPLXDWuuKdGNFh-15" value="UUT" style="text;html=1;align=left;verticalAlign=bottom;whiteSpace=wrap;rounded=0;fontFamily=Lucida Console;" parent="1" vertex="1">
          <mxGeometry x="320" y="-1059" width="160" height="20" as="geometry" />
        </mxCell>
        <mxCell id="ZZBJnIAPLXDWuuKdGNFh-16" value="SequenceGnerator" style="text;html=1;align=center;verticalAlign=bottom;whiteSpace=wrap;rounded=0;fontFamily=Lucida Console;fontStyle=0" parent="1" vertex="1">
          <mxGeometry x="320" y="-861" width="160" height="20" as="geometry" />
        </mxCell>
        <mxCell id="ZZBJnIAPLXDWuuKdGNFh-17" value="nextEn" style="text;html=1;align=left;verticalAlign=bottom;whiteSpace=wrap;rounded=0;fontFamily=Lucida Console;fontStyle=0" parent="1" vertex="1">
          <mxGeometry x="325" y="-971" width="70" height="20" as="geometry" />
        </mxCell>
        <mxCell id="ZZBJnIAPLXDWuuKdGNFh-18" value="random1" style="text;html=1;align=right;verticalAlign=bottom;whiteSpace=wrap;rounded=0;fontFamily=Lucida Console;spacingRight=12;" parent="1" vertex="1">
          <mxGeometry x="400" y="-1020" width="80" height="20" as="geometry" />
        </mxCell>
        <mxCell id="ZZBJnIAPLXDWuuKdGNFh-20" value="random2" style="text;html=1;align=right;verticalAlign=bottom;whiteSpace=wrap;rounded=0;fontFamily=Lucida Console;spacingRight=12;" parent="1" vertex="1">
          <mxGeometry x="400" y="-990" width="80" height="20" as="geometry" />
        </mxCell>
        <mxCell id="ZZBJnIAPLXDWuuKdGNFh-21" value="random3" style="text;html=1;align=right;verticalAlign=bottom;whiteSpace=wrap;rounded=0;fontFamily=Lucida Console;spacingRight=12;" parent="1" vertex="1">
          <mxGeometry x="400" y="-961" width="80" height="20" as="geometry" />
        </mxCell>
        <mxCell id="ZZBJnIAPLXDWuuKdGNFh-22" value="random4" style="text;html=1;align=right;verticalAlign=bottom;whiteSpace=wrap;rounded=0;fontFamily=Lucida Console;spacingRight=12;" parent="1" vertex="1">
          <mxGeometry x="400" y="-930" width="80" height="20" as="geometry" />
        </mxCell>
        <mxCell id="ZZBJnIAPLXDWuuKdGNFh-23" value="random5" style="text;html=1;align=right;verticalAlign=bottom;whiteSpace=wrap;rounded=0;fontFamily=Lucida Console;spacingRight=12;" parent="1" vertex="1">
          <mxGeometry x="400" y="-900" width="80" height="20" as="geometry" />
        </mxCell>
        <mxCell id="ZZBJnIAPLXDWuuKdGNFh-24" value="" style="endArrow=none;html=1;rounded=0;" parent="1" edge="1">
          <mxGeometry width="50" height="50" relative="1" as="geometry">
            <mxPoint x="480" y="-1010.29" as="sourcePoint" />
            <mxPoint x="600" y="-1010.29" as="targetPoint" />
          </mxGeometry>
        </mxCell>
        <mxCell id="ZZBJnIAPLXDWuuKdGNFh-25" value="" style="endArrow=none;html=1;rounded=0;" parent="1" edge="1">
          <mxGeometry width="50" height="50" relative="1" as="geometry">
            <mxPoint x="480" y="-980.29" as="sourcePoint" />
            <mxPoint x="600" y="-980.29" as="targetPoint" />
          </mxGeometry>
        </mxCell>
        <mxCell id="ZZBJnIAPLXDWuuKdGNFh-26" value="" style="endArrow=none;html=1;rounded=0;" parent="1" edge="1">
          <mxGeometry width="50" height="50" relative="1" as="geometry">
            <mxPoint x="480" y="-951.29" as="sourcePoint" />
            <mxPoint x="600" y="-951.29" as="targetPoint" />
          </mxGeometry>
        </mxCell>
        <mxCell id="ZZBJnIAPLXDWuuKdGNFh-27" value="" style="endArrow=none;html=1;rounded=0;" parent="1" edge="1">
          <mxGeometry width="50" height="50" relative="1" as="geometry">
            <mxPoint x="480" y="-920.29" as="sourcePoint" />
            <mxPoint x="600" y="-920.29" as="targetPoint" />
          </mxGeometry>
        </mxCell>
        <mxCell id="ZZBJnIAPLXDWuuKdGNFh-28" value="" style="endArrow=none;html=1;rounded=0;" parent="1" edge="1">
          <mxGeometry width="50" height="50" relative="1" as="geometry">
            <mxPoint x="480" y="-890.29" as="sourcePoint" />
            <mxPoint x="600" y="-890.29" as="targetPoint" />
          </mxGeometry>
        </mxCell>
        <mxCell id="ZZBJnIAPLXDWuuKdGNFh-34" value="random1" style="text;html=1;align=right;verticalAlign=bottom;whiteSpace=wrap;rounded=0;fontFamily=Lucida Console;spacingRight=12;" parent="1" vertex="1">
          <mxGeometry x="519" y="-1029" width="80" height="20" as="geometry" />
        </mxCell>
        <mxCell id="ZZBJnIAPLXDWuuKdGNFh-35" value="random2" style="text;html=1;align=right;verticalAlign=bottom;whiteSpace=wrap;rounded=0;fontFamily=Lucida Console;spacingRight=12;" parent="1" vertex="1">
          <mxGeometry x="519" y="-999" width="80" height="20" as="geometry" />
        </mxCell>
        <mxCell id="ZZBJnIAPLXDWuuKdGNFh-36" value="random3" style="text;html=1;align=right;verticalAlign=bottom;whiteSpace=wrap;rounded=0;fontFamily=Lucida Console;spacingRight=12;" parent="1" vertex="1">
          <mxGeometry x="519" y="-970" width="80" height="20" as="geometry" />
        </mxCell>
        <mxCell id="ZZBJnIAPLXDWuuKdGNFh-37" value="random4" style="text;html=1;align=right;verticalAlign=bottom;whiteSpace=wrap;rounded=0;fontFamily=Lucida Console;spacingRight=12;" parent="1" vertex="1">
          <mxGeometry x="519" y="-939" width="80" height="20" as="geometry" />
        </mxCell>
        <mxCell id="ZZBJnIAPLXDWuuKdGNFh-38" value="random5" style="text;html=1;align=right;verticalAlign=bottom;whiteSpace=wrap;rounded=0;fontFamily=Lucida Console;spacingRight=12;" parent="1" vertex="1">
          <mxGeometry x="519" y="-909" width="80" height="20" as="geometry" />
        </mxCell>
        <mxCell id="ZZBJnIAPLXDWuuKdGNFh-43" value="reset" style="text;html=1;align=right;verticalAlign=bottom;whiteSpace=wrap;rounded=0;fontFamily=Lucida Console;spacingRight=12;" parent="1" vertex="1">
          <mxGeometry x="241" y="-913" width="80" height="20" as="geometry" />
        </mxCell>
        <mxCell id="ZZBJnIAPLXDWuuKdGNFh-44" value="" style="endArrow=none;html=1;rounded=0;exitX=0;exitY=0;exitDx=0;exitDy=0;" parent="1" source="ZZBJnIAPLXDWuuKdGNFh-45" edge="1">
          <mxGeometry width="50" height="50" relative="1" as="geometry">
            <mxPoint x="200" y="-893" as="sourcePoint" />
            <mxPoint x="320" y="-893" as="targetPoint" />
          </mxGeometry>
        </mxCell>
        <mxCell id="ZZBJnIAPLXDWuuKdGNFh-45" value="clock" style="text;html=1;align=right;verticalAlign=bottom;whiteSpace=wrap;rounded=0;fontFamily=Lucida Console;spacingRight=12;" parent="1" vertex="1">
          <mxGeometry x="241" y="-892.69" width="80" height="20" as="geometry" />
        </mxCell>
        <mxCell id="ZZBJnIAPLXDWuuKdGNFh-46" value="" style="endArrow=none;html=1;rounded=0;" parent="1" edge="1">
          <mxGeometry width="50" height="50" relative="1" as="geometry">
            <mxPoint x="240" y="-873" as="sourcePoint" />
            <mxPoint x="320" y="-872.69" as="targetPoint" />
          </mxGeometry>
        </mxCell>
        <mxCell id="BIj7mcDXrKx_jyzEbEWq-1" value="reset" style="text;html=1;align=right;verticalAlign=bottom;whiteSpace=wrap;rounded=0;fontFamily=Lucida Console;spacingRight=12;" vertex="1" parent="1">
          <mxGeometry x="299" y="-905" width="80" height="20" as="geometry" />
        </mxCell>
        <mxCell id="BIj7mcDXrKx_jyzEbEWq-2" value="clock" style="text;html=1;align=right;verticalAlign=bottom;whiteSpace=wrap;rounded=0;fontFamily=Lucida Console;spacingRight=12;" vertex="1" parent="1">
          <mxGeometry x="299" y="-884.69" width="80" height="20" as="geometry" />
        </mxCell>
      </root>
    </mxGraphModel>
  </diagram>
</mxfile>
